REM DIRINDEX 1\6,1\2\7,1\2\8,1\2\9,1\3\10,1\3\11,1\4\12,1\4\13,1\4\14,1\5\15,1\5\16,1\5\17
REM DIRNAME cjc041,folder01,folder02,folder03,folder04,folder05,folder06,folder07,folder08,folder09,folder10,folder11,folder12,folder13,folder14,folder15,folder16
TITLE ""
FILE "3Q_t2_0819-0828.mp3" MP3
  TRACK 01 AUDIO
    TITLE "7:cjc041_5875"
    INDEX 01 00:00:00
  TRACK 02 AUDIO
    TITLE "0:"
    INDEX 01 00:01:26
  TRACK 03 AUDIO
    TITLE "8:cjc041_5876"
    INDEX 01 00:02:08
  TRACK 04 AUDIO
    TITLE "0:"
    INDEX 01 00:03:49
  TRACK 05 AUDIO
    TITLE "9:cjc041_5877"
    INDEX 01 00:04:25
  TRACK 06 AUDIO
    TITLE "0:"
    INDEX 01 00:05:57
  TRACK 07 AUDIO
    TITLE "7:cjc041_5878"
    INDEX 01 00:07:27
  TRACK 08 AUDIO
    TITLE "0:"
    INDEX 01 00:08:66
  TRACK 09 AUDIO
    TITLE "8:cjc041_5879"
    INDEX 01 00:09:44
  TRACK 10 AUDIO
    TITLE "0:"
    INDEX 01 00:10:49
  TRACK 11 AUDIO
    TITLE "9:cjc041_5880"
    INDEX 01 00:11:19
  TRACK 12 AUDIO
    TITLE "0:"
    INDEX 01 00:12:56
  TRACK 13 AUDIO
    TITLE "7:cjc041_5881"
    INDEX 01 00:14:33
  TRACK 14 AUDIO
    TITLE "0:"
    INDEX 01 00:15:58
  TRACK 15 AUDIO
    TITLE "8:cjc041_5882"
    INDEX 01 00:16:34
  TRACK 16 AUDIO
    TITLE "0:"
    INDEX 01 00:17:53
  TRACK 17 AUDIO
    TITLE "9:cjc041_5883"
    INDEX 01 00:18:29
  TRACK 18 AUDIO
    TITLE "0:"
    INDEX 01 00:19:52
  TRACK 19 AUDIO
    TITLE "7:cjc041_5884"
    INDEX 01 00:21:33
  TRACK 20 AUDIO
    TITLE "0:"
    INDEX 01 00:22:54
  TRACK 21 AUDIO
    TITLE "8:cjc041_5885"
    INDEX 01 00:23:36
  TRACK 22 AUDIO
    TITLE "0:"
    INDEX 01 00:24:55
  TRACK 23 AUDIO
    TITLE "9:cjc041_5886"
    INDEX 01 00:25:37
  TRACK 24 AUDIO
    TITLE "0:"
    INDEX 01 00:26:56
  TRACK 25 AUDIO
    TITLE "7:cjc041_5887"
    INDEX 01 00:28:41
  TRACK 26 AUDIO
    TITLE "0:"
    INDEX 01 00:29:60
  TRACK 27 AUDIO
    TITLE "8:cjc041_5888"
    INDEX 01 00:30:44
  TRACK 28 AUDIO
    TITLE "0:"
    INDEX 01 00:32:48
  TRACK 29 AUDIO
    TITLE "9:cjc041_5889"
    INDEX 01 00:33:22
  TRACK 30 AUDIO
    TITLE "0:"
    INDEX 01 00:34:47
  TRACK 31 AUDIO
    TITLE "7:cjc041_5890"
    INDEX 01 00:36:31
  TRACK 32 AUDIO
    TITLE "0:"
    INDEX 01 00:37:57
  TRACK 33 AUDIO
    TITLE "8:cjc041_5891"
    INDEX 01 00:38:30
  TRACK 34 AUDIO
    TITLE "0:"
    INDEX 01 00:39:45
  TRACK 35 AUDIO
    TITLE "9:cjc041_5892"
    INDEX 01 00:40:21
  TRACK 36 AUDIO
    TITLE "0:"
    INDEX 01 00:41:47
  TRACK 37 AUDIO
    TITLE "7:cjc041_5893"
    INDEX 01 00:43:33
  TRACK 38 AUDIO
    TITLE "0:"
    INDEX 01 00:44:42
  TRACK 39 AUDIO
    TITLE "8:cjc041_5894"
    INDEX 01 00:45:26
  TRACK 40 AUDIO
    TITLE "0:"
    INDEX 01 00:46:33
  TRACK 41 AUDIO
    TITLE "9:cjc041_5895"
    INDEX 01 00:47:15
  TRACK 42 AUDIO
    TITLE "0:"
    INDEX 01 00:48:26
  TRACK 43 AUDIO
    TITLE "7:cjc041_5896"
    INDEX 01 00:50:05
  TRACK 44 AUDIO
    TITLE "0:"
    INDEX 01 00:51:36
  TRACK 45 AUDIO
    TITLE "8:cjc041_5897"
    INDEX 01 00:52:20
  TRACK 46 AUDIO
    TITLE "0:"
    INDEX 01 00:53:31
  TRACK 47 AUDIO
    TITLE "9:cjc041_5898"
    INDEX 01 00:54:09
  TRACK 48 AUDIO
    TITLE "0:"
    INDEX 01 00:55:38
  TRACK 49 AUDIO
    TITLE "7:cjc041_5899"
    INDEX 01 00:57:25
  TRACK 50 AUDIO
    TITLE "0:"
    INDEX 01 00:58:42
  TRACK 51 AUDIO
    TITLE "8:cjc041_5900"
    INDEX 01 00:59:20
  TRACK 52 AUDIO
    TITLE "0:"
    INDEX 01 01:00:27
  TRACK 53 AUDIO
    TITLE "9:cjc041_5901"
    INDEX 01 01:01:09
  TRACK 54 AUDIO
    TITLE "0:"
    INDEX 01 01:02:24
  TRACK 55 AUDIO
    TITLE "7:cjc041_5902"
    INDEX 01 01:04:03
  TRACK 56 AUDIO
    TITLE "0:"
    INDEX 01 01:05:09
  TRACK 57 AUDIO
    TITLE "8:cjc041_5903"
    INDEX 01 01:05:64
  TRACK 58 AUDIO
    TITLE "0:"
    INDEX 01 01:06:71
  TRACK 59 AUDIO
    TITLE "9:cjc041_5904"
    INDEX 01 01:07:53
  TRACK 60 AUDIO
    TITLE "0:"
    INDEX 01 01:08:60
